<svg xmlns="http://www.w3.org/2000/svg" viewBox="0 0 128 128"><defs><linearGradient id="b" x2="1" y2="1"><stop stop-color="#271532"/><stop offset="1" stop-color="#731f66"/></linearGradient><linearGradient id="j" x2="1"><stop stop-color="#f65ec7"/><stop offset="1" stop-color="#6fd9ff"/></linearGradient></defs><rect width="128" height="128" rx="18" fill="url(#b)"/><path d="M25 119c3-27 17-40 39-40s36 13 39 40" fill="#171225" stroke="#e34fc0" stroke-width="4"/><circle cx="64" cy="52" r="31" fill="#e5b08c"/><path d="M32 50c0-27 13-40 33-40 23 0 33 17 32 43-9-9-17-19-23-29-9 12-23 21-42 26Z" fill="#322041"/><path d="M42 50h44l-4 17H46Z" fill="url(#j)" opacity=".86"/><path d="M52 74c8 4 16 4 24 0" fill="none" stroke="#954b59" stroke-width="3" stroke-linecap="round"/><path d="M44 98l20 12 20-12" fill="none" stroke="#6fd9ff" stroke-width="4" stroke-linecap="round"/><circle cx="64" cy="108" r="4" fill="#f65ec7"/></svg>
